<svg xmlns="http://www.w3.org/2000/svg" viewBox="0 0 260.4 517.7"><g display="none"><polygon display="inline" fill="none" stroke="#A7A9AC" stroke-width="4" stroke-miterlimit="10" points="345.6,375.4 130.2,499.8-85.2,375.4-85.2,126.7 130.2,2.3 345.6,126.7"/></g><g><path fill="#5A5B5B" d="M217.1,444.1l-9.4-51.5l-9-49.4l0,0l0,0l0,0l-22.5-123.7l0,0l-7.5-41.2l0,0l-5.4-29.6l-0.7-1c-0.2-0.5-0.5-1-1-1.4l-0.1-0.1l-16.2-9.3l0.7-0.4l-15.7-9.1l-15.7,9.1l0.7,0.4l-15.7,9.1L99,146l0,0l0,0c-0.9,0.6-1.5,1.5-1.7,2.5l0,0l-12.9,70.9l0,0L61.7,343.2l0,0l0,0l0,0l-9,49.4l-9.4,51.5c-0.4,2,1,3.9,3,4.3c0.2,0,0.4,0.1,0.7,0.1c1.7,0,3.3-1.2,3.6-3l8.5-46.4l67.5,39v54.8c0,2,1.7,3.7,3.7,3.7s3.7-1.7,3.7-3.7V438l67.5-39l8.5,46.4c0.3,1.8,1.9,3,3.6,3c0.2,0,0.4,0,0.7-0.1C216.1,448,217.5,446.1,217.1,444.1zM126.5,276.9L98.5,230.5l28,16.2V276.9zM133.9,246.7l28-16.2l-28,46.4V246.7zM92,218.2l5.1-28.2l23.8,44.9L92,218.2zM119.6,279.7l-35.1-20.3l5.3-29.1L119.6,279.7zM170.6,230.4l5.3,29.1l-35.1,20.3L170.6,230.4zM139.5,234.9L163.3,190l5.1,28.2L139.5,234.9zM133.9,229.7v-28.6l21.8-12.6L133.9,229.7zM126.5,229.7l-21.8-41.2l21.8,12.6V229.7zM126.5,292.2V323.5l-34.2-51.1L126.5,292.2zM133.9,292.2l34.2-19.8l-34.2,51.1V292.2zM160.9,177l-20.6,11.9l17.3-29.9L160.9,177zM99.5,177l3.2-17.3l17.2,29.1L99.5,177zM118.3,324.5L77,300.7L82.4,271L118.3,324.5zM178,271l5.4,29.7l-41.3,23.9L178,271zM133.9,185.2v-18.6l16.2-9.3L133.9,185.2zM126.5,185.4l-17-28.7l17,9.8V185.4zM126.5,337.8v32.1L86.1,314.5L126.5,337.8zM133.9,337.8L174.3,314.5l-40.4,55.4V337.8zM133.9,160.5v-17.2l4-2.3l14.9,8.6L133.9,160.5zM122.6,141l4,2.3v17.2l-18.9-10.9L122.6,141zM75,311.7l42,57.6l-47.5-27.4L75,311.7zM185.5,311.7l5.5,30.2l-47.5,27.4L185.5,311.7zM126.5,383.4v40.9L78,355.4L126.5,383.4zM133.9,383.4l48.5-28l-48.5,68.9V383.4zM67.4,353.2l50.1,71.2l-57.1-33L67.4,353.2zM142.9,424.3L193,353.1l7,38.2L142.9,424.3z"/><path fill="#808285" d="M130,127.4l-15.5,8.9l0.7,0.4L99.5,145.8L99,146l0,0l0,0c-0.9,0.6-1.5,1.5-1.7,2.5l0,0l-12.9,70.9l0,0L61.7,343.2l0,0l0,0l0,0l-9,49.4l-9.4,51.5c-0.4,2,1,3.9,3,4.3c0.2,0,0.4,0.1,0.7,0.1c1.7,0,3.3-1.2,3.6-3l8.5-46.4l67.5,39v54.8c0,2,1.5,3.5,3.4,3.7V127.4L130,127.4zM102.7,159.6l17.2,29.1L99.5,177L102.7,159.6zM97.2,190l23.8,44.9l-29-16.7L97.2,190zM89.8,230.4l29.8,49.4l-35.1-20.3L89.8,230.4zM82.4,271l35.9,53.6L77,300.7L82.4,271zM75,311.7l42,57.6l-47.5-27.4L75,311.7zM60.5,391.4l7-38.2l50.1,71.2L60.5,391.4zM126.5,424.3L78,355.4l48.5,28V424.3zM126.5,369.9L86.1,314.5l40.4,23.3V369.9zM126.5,323.5l-34.2-51.1l34.2,19.8V323.5zM126.5,276.9L98.5,230.5l28,16.2V276.9zM126.5,229.7l-21.8-41.2l21.8,12.6V229.7zM126.5,185.4l-17-28.7l17,9.8V185.4zM126.5,160.5l-18.9-10.9L122.5,141l4,2.3V160.5L126.5,160.5z"/><g><polygon fill="#808285" points="130.2,145.3 107.3,132 123.2,10 130.2,14"/></g><g><polygon fill="#5A5B5B" points="130.2,145.3 153.2,132 137.2,10 130.2,14"/></g><g><polygon fill="#BCBEC0" points="130.2,5.9 123.2,10 130.2,14 137.2,10"/></g></g><path opacity="0.25" fill="#000000" d="M203.3,447.3c5.4,12.8-18.5,30.2-58.6,32S63.4,466.6,58,453.7s19.8-30.5,59.9-32.2S197.9,434.5,203.3,447.3z"/></svg>
